<svg xmlns="http://www.w3.org/2000/svg" xmlns:xlink="http://www.w3.org/1999/xlink" width="745" height="145.996" viewBox="0 0 745 145.996">
  <defs>
    <clipPath id="clip-path">
      <rect id="Rettangolo_101" data-name="Rettangolo 101" width="745" height="145.996" fill="none"/>
    </clipPath>
  </defs>
  <g id="Raggruppa_253" data-name="Raggruppa 253" transform="translate(0 0)">
    <g id="Raggruppa_253-2" data-name="Raggruppa 253" transform="translate(0 0)" clip-path="url(#clip-path)">
      <path id="Tracciato_335" data-name="Tracciato 335" d="M126.465,82.618a9.3,9.3,0,0,1-1.945,6.269,6.722,6.722,0,0,1-5.373,2.256,6.966,6.966,0,0,1-3.8-1.04,6.671,6.671,0,0,1-2.521-2.989,10.872,10.872,0,0,1-.873-4.5,9.236,9.236,0,0,1,1.945-6.256,6.707,6.707,0,0,1,5.342-2.24,6.579,6.579,0,0,1,5.3,2.271,9.333,9.333,0,0,1,1.923,6.225m-12.945,0a8.336,8.336,0,0,0,1.486,5.273,5.608,5.608,0,0,0,8.4,0,8.335,8.335,0,0,0,1.485-5.273,8.217,8.217,0,0,0-1.5-5.267,5.1,5.1,0,0,0-4.217-1.872,5.023,5.023,0,0,0-4.188,1.864,8.335,8.335,0,0,0-1.47,5.274" transform="translate(52.79 34.953)" fill="#00852a"/>
      <path id="Tracciato_336" data-name="Tracciato 336" d="M136.176,90.841V80.2a5.2,5.2,0,0,0-1.04-3.6,4.209,4.209,0,0,0-3.23-1.123,5.59,5.59,0,0,0-4.307,1.485q-1.366,1.488-1.367,4.822v9.053h-1.492v-16.4h1.267l.285,2.249h.093q1.6-2.565,5.688-2.565,5.582,0,5.583,5.989V90.841Z" transform="translate(58.82 34.953)" fill="#00852a"/>
      <path id="Tracciato_337" data-name="Tracciato 337" d="M152.946,90.832l-.378-2.6h-.121a7.778,7.778,0,0,1-2.543,2.241,6.8,6.8,0,0,1-3.086.656,5.329,5.329,0,0,1-3.755-1.238,4.417,4.417,0,0,1-1.344-3.424,4.226,4.226,0,0,1,2-3.727,10.867,10.867,0,0,1,5.788-1.4l3.123-.093V80.163a5.574,5.574,0,0,0-.951-3.53,3.685,3.685,0,0,0-3.062-1.192,10.251,10.251,0,0,0-4.724,1.267l-.559-1.3a12.509,12.509,0,0,1,5.343-1.267,5.314,5.314,0,0,1,4.035,1.4,6.156,6.156,0,0,1,1.338,4.375v10.91Zm-6.036-1.057a5.224,5.224,0,0,0,5.658-5.673V82.488l-2.867.121a10.842,10.842,0,0,0-4.927,1.077,3.112,3.112,0,0,0-1.47,2.846,3.061,3.061,0,0,0,.942,2.391,3.835,3.835,0,0,0,2.663.852" transform="translate(66.827 34.962)" fill="#00852a"/>
      <path id="Tracciato_338" data-name="Tracciato 338" d="M179.651,90.841V80.083a5.351,5.351,0,0,0-.936-3.5,3.554,3.554,0,0,0-2.867-1.1,4.68,4.68,0,0,0-3.727,1.388,6.546,6.546,0,0,0-1.207,4.362v9.611H169.39V79.63q0-4.148-3.8-4.148a4.474,4.474,0,0,0-3.755,1.5,7.811,7.811,0,0,0-1.179,4.806v9.053H159.16v-16.4H160.4l.316,2.249h.091a4.681,4.681,0,0,1,1.932-1.894,5.743,5.743,0,0,1,2.761-.671q3.878,0,4.98,2.911h.06a5.578,5.578,0,0,1,2.15-2.157,6.2,6.2,0,0,1,3.07-.753,5.267,5.267,0,0,1,4.029,1.433,6.513,6.513,0,0,1,1.344,4.556V90.841Z" transform="translate(75.051 34.953)" fill="#00852a"/>
      <path id="Tracciato_339" data-name="Tracciato 339" d="M177.326,71.706q0-1.45.951-1.449a.845.845,0,0,1,.731.377,1.863,1.863,0,0,1,.263,1.073,1.905,1.905,0,0,1-.263,1.07.836.836,0,0,1-.731.393q-.951,0-.951-1.463m1.7,20.958h-1.494v-16.4h1.494Z" transform="translate(83.617 33.13)" fill="#00852a"/>
      <path id="Tracciato_340" data-name="Tracciato 340" d="M193.409,90.841V80.2a5.2,5.2,0,0,0-1.04-3.6,4.209,4.209,0,0,0-3.23-1.123,5.59,5.59,0,0,0-4.307,1.485q-1.366,1.488-1.367,4.822v9.053h-1.492v-16.4h1.267l.285,2.249h.093q1.6-2.565,5.688-2.565,5.582,0,5.583,5.989V90.841Z" transform="translate(85.808 34.953)" fill="#00852a"/>
      <path id="Tracciato_341" data-name="Tracciato 341" d="M200.562,76.288a6.8,6.8,0,0,1,3.077.65,6.12,6.12,0,0,1,2.324,2.216h.09q-.09-1.9-.09-3.726v-5.9h1.479V93.007h-.98l-.378-2.5h-.121a6.067,6.067,0,0,1-5.37,2.808A6.432,6.432,0,0,1,195.4,91.2q-1.8-2.112-1.8-6.157,0-4.254,1.779-6.5a6.219,6.219,0,0,1,5.178-2.247m0,1.358a4.643,4.643,0,0,0-4.038,1.887,9.368,9.368,0,0,0-1.348,5.477q0,6.971,5.417,6.971a4.911,4.911,0,0,0,4.072-1.614q1.3-1.614,1.3-5.327v-.255q0-3.8-1.274-5.471a4.869,4.869,0,0,0-4.126-1.667" transform="translate(91.293 32.786)" fill="#00852a"/>
      <path id="Tracciato_342" data-name="Tracciato 342" d="M213.648,77.957h-3.863v15.1h-1.494v-15.1h-3.049V77.08l3.049-.558V75.256a7.167,7.167,0,0,1,1.108-4.429,4.347,4.347,0,0,1,3.629-1.411,9.394,9.394,0,0,1,2.716.409l-.347,1.3a8.038,8.038,0,0,0-2.4-.377,2.83,2.83,0,0,0-2.484,1.034,5.943,5.943,0,0,0-.731,3.357v1.523h3.863Z" transform="translate(96.781 32.733)" fill="#00852a"/>
      <path id="Tracciato_343" data-name="Tracciato 343" d="M214.6,74.337V84.96a5.194,5.194,0,0,0,1.04,3.6,4.207,4.207,0,0,0,3.23,1.124,5.634,5.634,0,0,0,4.307-1.479q1.382-1.479,1.382-4.815V74.337h1.477v16.4h-1.267l-.271-2.263h-.091q-1.6,2.567-5.689,2.566-5.6,0-5.6-5.991V74.337Z" transform="translate(100.498 35.054)" fill="#00852a"/>
      <rect id="Rettangolo_100" data-name="Rettangolo 100" width="1.494" height="23.478" transform="translate(331.652 102.315)" fill="#00852a"/>
      <path id="Tracciato_344" data-name="Tracciato 344" d="M234.745,100.087a4.935,4.935,0,0,1-2.037-.377v-1.3a7.018,7.018,0,0,0,1.948.3q2.276,0,2.278-2.656v-19.8h1.492V95.847a4.651,4.651,0,0,1-.957,3.139,3.423,3.423,0,0,1-2.725,1.1m1.978-28.382q0-1.448.951-1.448a.851.851,0,0,1,.733.375,1.867,1.867,0,0,1,.262,1.073,1.907,1.907,0,0,1-.262,1.071.842.842,0,0,1-.733.391q-.951,0-.951-1.463" transform="translate(109.732 33.13)" fill="#00852a"/>
      <path id="Tracciato_345" data-name="Tracciato 345" d="M254.011,82.618a9.3,9.3,0,0,1-1.945,6.269,6.722,6.722,0,0,1-5.373,2.256,6.966,6.966,0,0,1-3.8-1.04,6.671,6.671,0,0,1-2.521-2.989,10.872,10.872,0,0,1-.873-4.5,9.236,9.236,0,0,1,1.945-6.256,6.707,6.707,0,0,1,5.342-2.24,6.579,6.579,0,0,1,5.3,2.271,9.332,9.332,0,0,1,1.923,6.225m-12.945,0a8.336,8.336,0,0,0,1.486,5.273,5.608,5.608,0,0,0,8.4,0,8.336,8.336,0,0,0,1.485-5.273,8.217,8.217,0,0,0-1.5-5.267,5.1,5.1,0,0,0-4.217-1.872,5.023,5.023,0,0,0-4.188,1.864,8.335,8.335,0,0,0-1.47,5.274" transform="translate(112.933 34.953)" fill="#00852a"/>
      <path id="Tracciato_346" data-name="Tracciato 346" d="M253.66,74.337V84.96a5.194,5.194,0,0,0,1.04,3.6,4.207,4.207,0,0,0,3.23,1.124,5.634,5.634,0,0,0,4.307-1.479q1.382-1.479,1.382-4.815V74.337H265.1v16.4H263.83l-.271-2.263h-.091q-1.6,2.567-5.689,2.566-5.6,0-5.6-5.991V74.337Z" transform="translate(118.914 35.054)" fill="#00852a"/>
      <path id="Tracciato_347" data-name="Tracciato 347" d="M270.9,74.122a12.8,12.8,0,0,1,2.234.212l-.287,1.432a8.84,8.84,0,0,0-2.128-.256,4.134,4.134,0,0,0-3.44,1.781,7.266,7.266,0,0,0-1.343,4.5V90.84h-1.494v-16.4h1.268l.15,2.958h.106a6.946,6.946,0,0,1,2.157-2.543,5.065,5.065,0,0,1,2.777-.731" transform="translate(124.695 34.952)" fill="#00852a"/>
      <path id="Tracciato_348" data-name="Tracciato 348" d="M284.08,90.841V80.2a5.2,5.2,0,0,0-1.04-3.6,4.209,4.209,0,0,0-3.23-1.123,5.59,5.59,0,0,0-4.307,1.485q-1.366,1.488-1.367,4.822v9.053h-1.492v-16.4h1.267l.285,2.249h.093q1.6-2.565,5.688-2.565,5.582,0,5.583,5.989V90.841Z" transform="translate(128.563 34.953)" fill="#00852a"/>
      <path id="Tracciato_349" data-name="Tracciato 349" d="M291.816,91.141a7.145,7.145,0,0,1-5.574-2.2,8.849,8.849,0,0,1-2-6.17,9.616,9.616,0,0,1,1.932-6.285,6.375,6.375,0,0,1,5.2-2.36,5.622,5.622,0,0,1,4.572,2.022,8.352,8.352,0,0,1,1.675,5.492v1.207H285.812A7.741,7.741,0,0,0,287.388,88a5.544,5.544,0,0,0,4.428,1.781,13.7,13.7,0,0,0,2.468-.2,14.693,14.693,0,0,0,2.694-.846V90.1a12.083,12.083,0,0,1-2.566.823,14.28,14.28,0,0,1-2.6.218m-.437-15.693a4.908,4.908,0,0,0-3.8,1.564,7.37,7.37,0,0,0-1.676,4.5h10.141a7.154,7.154,0,0,0-1.236-4.459,4.085,4.085,0,0,0-3.426-1.608" transform="translate(134.033 34.953)" fill="#00852a"/>
      <path id="Tracciato_350" data-name="Tracciato 350" d="M294.518,74.337h1.539l3.47,9.206q1.585,4.24,2.007,5.718h.091q.633-1.947,2.066-5.811l3.471-9.113H308.7l-7.349,19.058a14.924,14.924,0,0,1-1.494,3.139,4,4,0,0,1-1.411,1.221,4.268,4.268,0,0,1-1.953.408,6.8,6.8,0,0,1-1.917-.315v-1.3a7.08,7.08,0,0,0,1.885.241,2.541,2.541,0,0,0,1.36-.362,3.392,3.392,0,0,0,1.064-1.124,14.715,14.715,0,0,0,1.1-2.415q.627-1.651.808-2.15Z" transform="translate(138.878 35.054)" fill="#00852a"/>
      <path id="Tracciato_351" data-name="Tracciato 351" d="M316.567,90.985a11.244,11.244,0,0,0,2.475-.241V91.95a7.928,7.928,0,0,1-2.5.362,4.077,4.077,0,0,1-3.206-1.161A5.394,5.394,0,0,1,312.3,87.5V76.908h-2.431v-.877l2.431-.678.754-3.713h.771v3.969h4.812v1.3h-4.812v10.38a4.723,4.723,0,0,0,.664,2.792,2.4,2.4,0,0,0,2.081.9" transform="translate(146.116 33.782)" fill="#00852a"/>
      <path id="Tracciato_352" data-name="Tracciato 352" d="M329.908,93.007V82.37a5.2,5.2,0,0,0-1.04-3.6,4.209,4.209,0,0,0-3.23-1.123,5.59,5.59,0,0,0-4.307,1.485q-1.366,1.488-1.367,4.822v9.053h-1.492V69.529h1.492V77l-.075,2.1H320a5.5,5.5,0,0,1,2.322-2.143,8.135,8.135,0,0,1,3.486-.664q5.582,0,5.583,5.989V93.007Z" transform="translate(150.173 32.787)" fill="#00852a"/>
      <path id="Tracciato_353" data-name="Tracciato 353" d="M337.11,74.122a12.8,12.8,0,0,1,2.234.212l-.287,1.432a8.841,8.841,0,0,0-2.128-.256,4.133,4.133,0,0,0-3.44,1.781,7.266,7.266,0,0,0-1.344,4.5V90.84h-1.494v-16.4h1.268l.15,2.958h.106a6.946,6.946,0,0,1,2.157-2.543,5.065,5.065,0,0,1,2.777-.731" transform="translate(155.916 34.952)" fill="#00852a"/>
      <path id="Tracciato_354" data-name="Tracciato 354" d="M352.267,82.618a9.3,9.3,0,0,1-1.945,6.269,6.722,6.722,0,0,1-5.373,2.256,6.966,6.966,0,0,1-3.8-1.04,6.671,6.671,0,0,1-2.521-2.989,10.871,10.871,0,0,1-.873-4.5,9.236,9.236,0,0,1,1.945-6.256,6.707,6.707,0,0,1,5.342-2.24,6.579,6.579,0,0,1,5.3,2.271,9.332,9.332,0,0,1,1.923,6.225m-12.945,0a8.336,8.336,0,0,0,1.486,5.273,5.608,5.608,0,0,0,8.4,0,8.336,8.336,0,0,0,1.485-5.273,8.218,8.218,0,0,0-1.5-5.267,5.1,5.1,0,0,0-4.217-1.872,5.023,5.023,0,0,0-4.188,1.864,8.335,8.335,0,0,0-1.47,5.274" transform="translate(159.265 34.953)" fill="#00852a"/>
      <path id="Tracciato_355" data-name="Tracciato 355" d="M351.916,74.337V84.96a5.194,5.194,0,0,0,1.04,3.6,4.207,4.207,0,0,0,3.23,1.124,5.634,5.634,0,0,0,4.307-1.479q1.382-1.479,1.382-4.815V74.337h1.477v16.4h-1.267l-.271-2.263h-.091q-1.6,2.567-5.689,2.566-5.6,0-5.6-5.991V74.337Z" transform="translate(165.246 35.054)" fill="#00852a"/>
      <path id="Tracciato_356" data-name="Tracciato 356" d="M376.144,74.438V75.48l-3.4.212a5.8,5.8,0,0,1,1.36,3.711,5.005,5.005,0,0,1-1.578,3.841,5.951,5.951,0,0,1-4.232,1.472,9.194,9.194,0,0,1-1.57-.091,3.892,3.892,0,0,0-1.357,1.1,2.227,2.227,0,0,0-.469,1.344,1.247,1.247,0,0,0,.6,1.148,4.07,4.07,0,0,0,2,.362h2.868a6.652,6.652,0,0,1,4.088,1.079,3.757,3.757,0,0,1,1.419,3.19,4.542,4.542,0,0,1-2.1,4.007,10.726,10.726,0,0,1-6,1.411,8.245,8.245,0,0,1-4.79-1.193,3.827,3.827,0,0,1-1.7-3.32,3.941,3.941,0,0,1,1.049-2.8,5.438,5.438,0,0,1,2.846-1.525,2.9,2.9,0,0,1-1.186-.9,2.142,2.142,0,0,1-.444-1.336q0-1.644,2.1-2.9a4.684,4.684,0,0,1-2.232-1.848,5.272,5.272,0,0,1-.8-2.89,5.2,5.2,0,0,1,1.561-3.947,5.874,5.874,0,0,1,4.217-1.485,7.841,7.841,0,0,1,2.5.315Zm-13.279,19.18q0,3.379,5.025,3.38,6.456,0,6.459-4.119a2.373,2.373,0,0,0-1.011-2.144,6.166,6.166,0,0,0-3.274-.665h-2.687q-4.512,0-4.512,3.548m1.252-14.064a3.787,3.787,0,0,0,1.155,2.95,5.171,5.171,0,0,0,6.232.007,3.972,3.972,0,0,0,1.095-3.018,4.1,4.1,0,0,0-1.126-3.146,4.436,4.436,0,0,0-3.146-1.049,4.167,4.167,0,0,0-3.084,1.124,4.232,4.232,0,0,0-1.126,3.131" transform="translate(170.359 34.953)" fill="#00852a"/>
      <path id="Tracciato_357" data-name="Tracciato 357" d="M385.117,93.007V82.37a5.2,5.2,0,0,0-1.04-3.6,4.209,4.209,0,0,0-3.23-1.123,5.59,5.59,0,0,0-4.307,1.485q-1.366,1.488-1.367,4.822v9.053H373.68V69.529h1.492V77l-.075,2.1h.107a5.5,5.5,0,0,1,2.322-2.143,8.135,8.135,0,0,1,3.486-.664q5.582,0,5.583,5.989V93.007Z" transform="translate(176.207 32.787)" fill="#00852a"/>
      <path id="Tracciato_358" data-name="Tracciato 358" d="M398.449,91.141a7.145,7.145,0,0,1-5.574-2.2,8.849,8.849,0,0,1-2-6.17,9.616,9.616,0,0,1,1.932-6.285,6.375,6.375,0,0,1,5.2-2.36,5.622,5.622,0,0,1,4.572,2.022,8.352,8.352,0,0,1,1.675,5.492v1.207H392.445A7.741,7.741,0,0,0,394.021,88a5.544,5.544,0,0,0,4.428,1.781,13.705,13.705,0,0,0,2.468-.2,14.693,14.693,0,0,0,2.694-.846V90.1a12.085,12.085,0,0,1-2.566.823,14.28,14.28,0,0,1-2.6.218m-.437-15.693a4.908,4.908,0,0,0-3.8,1.564,7.37,7.37,0,0,0-1.676,4.5h10.14a7.154,7.154,0,0,0-1.236-4.459,4.085,4.085,0,0,0-3.426-1.608" transform="translate(184.315 34.953)" fill="#00852a"/>
      <path id="Tracciato_359" data-name="Tracciato 359" d="M407.669,82.3l-5.719-7.967h1.72l4.888,6.912,4.843-6.912h1.647l-5.63,7.967,6.036,8.435H413.72l-5.161-7.317-5.19,7.317h-1.644Z" transform="translate(189.431 35.054)" fill="#00852a"/>
      <path id="Tracciato_360" data-name="Tracciato 360" d="M413.291,71.706c0-.967.315-1.449.951-1.449a.845.845,0,0,1,.731.377,1.863,1.863,0,0,1,.263,1.073,1.9,1.9,0,0,1-.263,1.07.836.836,0,0,1-.731.393c-.636,0-.951-.487-.951-1.463M415,92.664H413.5v-16.4H415Z" transform="translate(194.885 33.13)" fill="#00852a"/>
      <path id="Tracciato_361" data-name="Tracciato 361" d="M428.611,86.57a3.9,3.9,0,0,1-1.676,3.389,8.151,8.151,0,0,1-4.752,1.183,11.318,11.318,0,0,1-5.221-1.011V88.517a11.515,11.515,0,0,0,5.221,1.238,6.884,6.884,0,0,0,3.689-.808,2.451,2.451,0,0,0,1.26-2.15,2.62,2.62,0,0,0-1-2.082,11.038,11.038,0,0,0-3.3-1.66,18.769,18.769,0,0,1-3.454-1.532,4.767,4.767,0,0,1-1.5-1.448,3.65,3.65,0,0,1-.5-1.969,3.36,3.36,0,0,1,1.547-2.911,7.5,7.5,0,0,1,4.323-1.073,12.943,12.943,0,0,1,5.039,1l-.558,1.358a11.8,11.8,0,0,0-4.481-1,6.485,6.485,0,0,0-3.184.664,2.035,2.035,0,0,0-1.176,1.841,2.548,2.548,0,0,0,.912,2.053,12.722,12.722,0,0,0,3.568,1.719,17.553,17.553,0,0,1,3.229,1.442,4.668,4.668,0,0,1,1.516,1.455,3.549,3.549,0,0,1,.506,1.916" transform="translate(196.616 34.952)" fill="#00852a"/>
      <path id="Tracciato_362" data-name="Tracciato 362" d="M433.257,90.985a11.243,11.243,0,0,0,2.475-.241V91.95a7.926,7.926,0,0,1-2.5.362,4.077,4.077,0,0,1-3.206-1.161,5.394,5.394,0,0,1-1.033-3.652V76.908h-2.431v-.877l2.431-.678.753-3.713h.771v3.969h4.812v1.3h-4.812v10.38a4.723,4.723,0,0,0,.664,2.792,2.4,2.4,0,0,0,2.081.9" transform="translate(201.14 33.782)" fill="#00852a"/>
      <path id="Tracciato_363" data-name="Tracciato 363" d="M441.7,91.141a7.145,7.145,0,0,1-5.574-2.2,8.849,8.849,0,0,1-2-6.17,9.616,9.616,0,0,1,1.932-6.285,6.375,6.375,0,0,1,5.2-2.36,5.622,5.622,0,0,1,4.572,2.022,8.352,8.352,0,0,1,1.675,5.492v1.207H435.7A7.74,7.74,0,0,0,437.276,88a5.544,5.544,0,0,0,4.428,1.781,13.706,13.706,0,0,0,2.468-.2,14.693,14.693,0,0,0,2.694-.846V90.1a12.085,12.085,0,0,1-2.566.823,14.28,14.28,0,0,1-2.6.218m-.437-15.693a4.908,4.908,0,0,0-3.8,1.564,7.37,7.37,0,0,0-1.676,4.5h10.14a7.154,7.154,0,0,0-1.236-4.459,4.085,4.085,0,0,0-3.426-1.608" transform="translate(204.711 34.953)" fill="#00852a"/>
      <path id="Tracciato_364" data-name="Tracciato 364" d="M457.518,90.841V80.2a5.2,5.2,0,0,0-1.04-3.6,4.209,4.209,0,0,0-3.23-1.123,5.59,5.59,0,0,0-4.307,1.485q-1.366,1.488-1.367,4.822v9.053h-1.492v-16.4h1.267l.285,2.249h.093q1.6-2.565,5.687-2.565,5.582,0,5.583,5.989V90.841Z" transform="translate(210.347 34.953)" fill="#00852a"/>
      <path id="Tracciato_365" data-name="Tracciato 365" d="M465.18,91.143a7.016,7.016,0,0,1-5.507-2.219,8.923,8.923,0,0,1-1.992-6.185,9.079,9.079,0,0,1,2.068-6.345,7.264,7.264,0,0,1,5.658-2.271,11.4,11.4,0,0,1,4.073.739l-.406,1.327a12.022,12.022,0,0,0-3.7-.709,5.611,5.611,0,0,0-4.572,1.864,8.171,8.171,0,0,0-1.553,5.364,7.928,7.928,0,0,0,1.553,5.2,5.333,5.333,0,0,0,4.346,1.878,10.646,10.646,0,0,0,4.15-.8v1.389a9.4,9.4,0,0,1-4.119.77" transform="translate(215.817 34.953)" fill="#00852a"/>
      <path id="Tracciato_366" data-name="Tracciato 366" d="M474.826,91.141a7.145,7.145,0,0,1-5.574-2.2,8.849,8.849,0,0,1-2-6.17,9.616,9.616,0,0,1,1.932-6.285,6.374,6.374,0,0,1,5.2-2.36,5.622,5.622,0,0,1,4.572,2.022,8.352,8.352,0,0,1,1.675,5.492v1.207H468.822A7.74,7.74,0,0,0,470.4,88a5.544,5.544,0,0,0,4.428,1.781,13.706,13.706,0,0,0,2.468-.2,14.7,14.7,0,0,0,2.694-.846V90.1a12.084,12.084,0,0,1-2.566.823,14.279,14.279,0,0,1-2.6.218m-.437-15.693a4.908,4.908,0,0,0-3.8,1.564,7.37,7.37,0,0,0-1.676,4.5h10.14a7.154,7.154,0,0,0-1.236-4.459,4.085,4.085,0,0,0-3.426-1.608" transform="translate(220.33 34.953)" fill="#00852a"/>
      <path id="Tracciato_367" data-name="Tracciato 367" d="M141.748,32.082a12.588,12.588,0,0,1,4.678,10.3V70.747h-8.753L137,62.184a15.613,15.613,0,0,1-6.111,6.79A16.479,16.479,0,0,1,122.1,71.5a13.676,13.676,0,0,1-9.525-3.282,11.115,11.115,0,0,1-3.641-8.676A8.882,8.882,0,0,1,111.1,53.6a14.161,14.161,0,0,1,6.15-3.979,27.167,27.167,0,0,1,9.222-1.435h10.073V41.852q0-5.395-2.981-8.525a10.618,10.618,0,0,0-8.073-3.131,19.2,19.2,0,0,0-6.732,1.3,19.631,19.631,0,0,0-6.092,3.564l-.565-.642a22.062,22.062,0,0,1,7.695-4.509,27.786,27.786,0,0,1,9.393-1.641q7.882,0,12.561,3.811M132,66.541a16.676,16.676,0,0,0,4.546-5.979V49.435h-8.036a8.679,8.679,0,0,0-6.619,2.659,9.883,9.883,0,0,0-2.509,7.072,11.671,11.671,0,0,0,1.923,7,5.928,5.928,0,0,0,5.018,2.659A8.987,8.987,0,0,0,132,66.541" transform="translate(51.365 13.332)" fill="#00852a"/>
      <path id="Tracciato_368" data-name="Tracciato 368" d="M188.511,74.459V75.7H156.559V17.762h10.186v56.7Z" transform="translate(73.824 8.376)" fill="#00852a"/>
      <path id="Tracciato_369" data-name="Tracciato 369" d="M191.846,25.675a6.575,6.575,0,0,1-8.338,0,5.272,5.272,0,0,1-1.547-3.979,5.149,5.149,0,0,1,1.547-3.942A5.874,5.874,0,0,1,187.7,16.3a5.806,5.806,0,0,1,4.169,1.452,5.179,5.179,0,0,1,1.527,3.942,5.272,5.272,0,0,1-1.547,3.979m-9.091,9h9.883V76.394h-9.883Z" transform="translate(85.803 7.687)" fill="#00852a"/>
      <path id="Tracciato_370" data-name="Tracciato 370" d="M212.812,20.225a11.02,11.02,0,0,0-2.206,7.166v7.583h13.241v1.245H210.606V76.7h-9.884V36.219H193.1V34.974h7.62v-5.7a13,13,0,0,1,3.942-9.865,14.4,14.4,0,0,1,10.355-3.752,18.6,18.6,0,0,1,6.338,1.112,13.641,13.641,0,0,1,5.016,3l-.528.6a9.533,9.533,0,0,0-3.245-2.094,10.319,10.319,0,0,0-3.883-.774,7.221,7.221,0,0,0-5.905,2.716" transform="translate(91.056 7.385)" fill="#00852a"/>
      <path id="Tracciato_371" data-name="Tracciato 371" d="M224.509,48.945v.943a27.927,27.927,0,0,0,1.773,10.354,15.772,15.772,0,0,0,5.016,6.941,11.873,11.873,0,0,0,7.393,2.471,19.533,19.533,0,0,0,6.659-1.264,18.957,18.957,0,0,0,6.017-3.451l.49.642a19.7,19.7,0,0,1-7.431,4.318,28.462,28.462,0,0,1-9.356,1.6,21.917,21.917,0,0,1-11.015-2.7,18.676,18.676,0,0,1-7.375-7.6,23.634,23.634,0,0,1-2.622-11.316,24.206,24.206,0,0,1,2.547-11.318,18.342,18.342,0,0,1,7.224-7.6,21.223,21.223,0,0,1,10.789-2.7A20.162,20.162,0,0,1,244.9,30.857a17.868,17.868,0,0,1,6.941,7.224,22.293,22.293,0,0,1,2.471,10.638v.227Zm3.111-14.467q-2.735,5-3.036,13.26H243.9a35.282,35.282,0,0,0-1.17-9.546,15.546,15.546,0,0,0-3.282-6.431,6.427,6.427,0,0,0-4.828-2.282q-4.265,0-7,5" transform="translate(100.938 13.332)" fill="#00852a"/>
      <path id="Tracciato_372" data-name="Tracciato 372" d="M269.905,25.675a6.575,6.575,0,0,1-8.338,0,5.272,5.272,0,0,1-1.547-3.979,5.149,5.149,0,0,1,1.547-3.942,5.87,5.87,0,0,1,4.187-1.452,5.8,5.8,0,0,1,4.169,1.452,5.175,5.175,0,0,1,1.529,3.942,5.272,5.272,0,0,1-1.547,3.979m-9.091,9H270.7V76.394h-9.883Z" transform="translate(122.611 7.687)" fill="#00852a"/>
      <path id="Tracciato_373" data-name="Tracciato 373" d="M308.393,31.781a12.571,12.571,0,0,1,3.47,9.241V70.747H301.98V38.382a8.357,8.357,0,0,0-1.773-5.527,5.748,5.748,0,0,0-4.64-2.131,10.255,10.255,0,0,0-6.413,2.434,16.45,16.45,0,0,0-4.866,6.469v31.12H274.4V29.027h8.713l.643,9.053a16.29,16.29,0,0,1,6.206-7.112,16.751,16.751,0,0,1,9.222-2.7,12.366,12.366,0,0,1,9.2,3.51" transform="translate(129.394 13.332)" fill="#00852a"/>
      <path id="Tracciato_374" data-name="Tracciato 374" d="M349.677,71.8a14.315,14.315,0,0,1-4.884,2.849,17.829,17.829,0,0,1-6.129,1.074,13.706,13.706,0,0,1-9.94-3.621,12.7,12.7,0,0,1-3.754-9.581V34.49H317.65V33.247h7.319l9.053-13.921h.83V33.247h13.543V34.49H334.852V64.367a10.669,10.669,0,0,0,2.094,6.922,6.721,6.721,0,0,0,5.487,2.584,9.947,9.947,0,0,0,3.7-.736,9.338,9.338,0,0,0,3.093-1.942Z" transform="translate(149.786 9.114)" fill="#00852a"/>
      <path id="Tracciato_375" data-name="Tracciato 375" d="M376.856,37.474a12.571,12.571,0,0,1,3.47,9.241V76.44h-9.883V44.075a8.357,8.357,0,0,0-1.773-5.527,5.748,5.748,0,0,0-4.64-2.131,10.255,10.255,0,0,0-6.413,2.434,16.448,16.448,0,0,0-4.866,6.469V76.44h-9.883V16.2h9.883v26.48a17.109,17.109,0,0,1,6.242-6.319,16.623,16.623,0,0,1,8.659-2.4,12.366,12.366,0,0,1,9.2,3.51" transform="translate(161.677 7.639)" fill="#00852a"/>
      <path id="Tracciato_376" data-name="Tracciato 376" d="M384.065,48.945v.943a27.927,27.927,0,0,0,1.773,10.354,15.774,15.774,0,0,0,5.018,6.941,11.866,11.866,0,0,0,7.392,2.471,19.527,19.527,0,0,0,6.659-1.264,18.965,18.965,0,0,0,6.019-3.451l.489.642a19.693,19.693,0,0,1-7.43,4.318,28.468,28.468,0,0,1-9.356,1.6,21.926,21.926,0,0,1-11.016-2.7,18.694,18.694,0,0,1-7.375-7.6,23.651,23.651,0,0,1-2.621-11.316,24.224,24.224,0,0,1,2.546-11.318,18.352,18.352,0,0,1,7.224-7.6,21.23,21.23,0,0,1,10.789-2.7,20.167,20.167,0,0,1,10.28,2.586,17.865,17.865,0,0,1,6.94,7.224,22.277,22.277,0,0,1,2.472,10.638v.227Zm3.112-14.467q-2.737,5-3.037,13.26h19.314a35.286,35.286,0,0,0-1.168-9.546A15.53,15.53,0,0,0,399,31.761a6.425,6.425,0,0,0-4.828-2.282q-4.264,0-7,5" transform="translate(176.176 13.332)" fill="#00852a"/>
      <path id="Tracciato_377" data-name="Tracciato 377" d="M453.226,69.1a15.571,15.571,0,0,1-6.676,5.676A22.462,22.462,0,0,1,437.1,76.7a25.921,25.921,0,0,1-10.864-2.3,22.957,22.957,0,0,1-8.373-6.338l.752-.831a18.711,18.711,0,0,0,6.81,5.281,19.461,19.461,0,0,0,8.355,1.962,11.873,11.873,0,0,0,8.488-3.055,10.577,10.577,0,0,0,3.245-8.073,10.98,10.98,0,0,0-1.585-5.979,14.986,14.986,0,0,0-3.942-4.206,69.317,69.317,0,0,0-6.394-3.96,76.775,76.775,0,0,1-7.072-4.413,16.236,16.236,0,0,1-4.471-5,14.347,14.347,0,0,1-1.811-7.412,14.85,14.85,0,0,1,2.131-8,14.134,14.134,0,0,1,5.867-5.28,19.153,19.153,0,0,1,8.6-1.848,24.769,24.769,0,0,1,9.129,1.733,21.206,21.206,0,0,1,7.355,4.68l-.64.83a21.459,21.459,0,0,0-5.96-3.621,17.145,17.145,0,0,0-6.525-1.4,9.834,9.834,0,0,0-7.131,2.622,9.225,9.225,0,0,0-2.716,6.959,9.8,9.8,0,0,0,1.547,5.564,15.039,15.039,0,0,0,3.754,3.905q2.207,1.583,6.244,3.885a73.068,73.068,0,0,1,7.186,4.526,17.566,17.566,0,0,1,4.7,5.281A15.207,15.207,0,0,1,455.7,60.1a16,16,0,0,1-2.471,9" transform="translate(197.04 8.134)" fill="#00852a"/>
      <path id="Tracciato_378" data-name="Tracciato 378" d="M485.494,28.785V70.506H476.78l-.64-8.639a15.9,15.9,0,0,1-6.092,6.828,16.55,16.55,0,0,1-8.96,2.565,11.631,11.631,0,0,1-12.3-12.336V28.785h9.92V61.527a8.121,8.121,0,0,0,1.622,5.3,5.286,5.286,0,0,0,4.3,1.979,10,10,0,0,0,6.225-2.321,16.27,16.27,0,0,0,4.752-6.167V28.785Z" transform="translate(211.625 13.574)" fill="#00852a"/>
      <path id="Tracciato_379" data-name="Tracciato 379" d="M514.8,31.781a12.571,12.571,0,0,1,3.47,9.241V70.747h-9.883V38.382a8.356,8.356,0,0,0-1.773-5.527,5.748,5.748,0,0,0-4.64-2.131,10.255,10.255,0,0,0-6.413,2.434,16.447,16.447,0,0,0-4.866,6.469v31.12h-9.883V29.027h8.713l.643,9.053a16.291,16.291,0,0,1,6.205-7.112,16.752,16.752,0,0,1,9.222-2.7,12.366,12.366,0,0,1,9.2,3.51" transform="translate(226.726 13.332)" fill="#00852a"/>
      <path id="Tracciato_380" data-name="Tracciato 380" d="M21.655,60.316h-.044a.569.569,0,0,0-.14,1.118A33.827,33.827,0,0,1,46.449,90.359,32.984,32.984,0,0,1,49.522,78.08,30.736,30.736,0,0,0,21.655,60.316" transform="translate(9.927 28.442)" fill="#00852a"/>
      <path id="Tracciato_381" data-name="Tracciato 381" d="M40.326,98.784A33.628,33.628,0,0,1,34.253,113.9a2.3,2.3,0,0,0,2.986,3.367,15.386,15.386,0,0,1,14.745,0,2.3,2.3,0,0,0,3.377-1.622c0-.019.01-.037.013-.056a2.313,2.313,0,0,0-.191-1.321,2.494,2.494,0,0,0-.219-.372l-1.6-2.44a33.8,33.8,0,0,1,20.4-50.027.569.569,0,0,0-.134-1.117h-.053c-.481,0-.961.015-1.438.038-.149.006-.3.018-.444.025q-.5.031-1,.077c-.16.015-.321.031-.48.047-.344.04-.686.082-1.026.131l-.387.054c-.461.072-.917.153-1.371.244-.085.018-.169.04-.253.057-.371.078-.74.163-1.105.255l-.446.118c-.309.082-.615.171-.92.26-.149.044-.3.09-.443.137-.343.107-.681.224-1.018.343-.1.035-.191.066-.287.1-.425.156-.845.322-1.261.5-.113.047-.224.1-.336.146q-.461.2-.915.413c-.141.068-.283.137-.422.206q-.422.207-.834.427c-.129.071-.26.138-.39.209-.353.194-.7.394-1.049.6-.04.024-.081.046-.122.072-.381.231-.756.474-1.127.721-.116.079-.231.159-.346.24q-.388.267-.768.544l-.378.283q-.377.289-.748.589c-.106.085-.212.169-.316.256-.341.284-.678.572-1.007.871-.052.047-.1.1-.153.144q-.417.384-.82.781c-.107.107-.212.215-.319.322-.213.218-.422.439-.63.661-.107.116-.213.232-.319.35-.221.247-.439.5-.652.752-.075.091-.153.178-.228.269q-.422.512-.821,1.045c-.069.091-.134.187-.2.278-.2.271-.393.544-.583.82-.088.131-.177.263-.263.394-.169.253-.333.511-.493.77-.081.131-.163.262-.243.393-.19.316-.374.639-.553.962-.04.072-.081.141-.119.212q-.318.587-.611,1.19c-.06.125-.118.253-.177.378-.135.287-.266.578-.393.87-.065.149-.127.3-.19.447-.119.291-.234.583-.344.877-.053.138-.106.275-.156.412-1.179,3.261-2.714,8.326-4.34,18.175" transform="translate(15.946 28.442)" fill="#00852a"/>
      <path id="Tracciato_382" data-name="Tracciato 382" d="M43.451,0s7.183,4.649,7.183,8.616a7.183,7.183,0,1,1-14.365,0C36.268,4.649,43.451,0,43.451,0" transform="translate(17.102 0.001)" fill="#ff8900"/>
      <path id="Tracciato_383" data-name="Tracciato 383" d="M0,43.452s4.649-7.184,8.616-7.184a7.184,7.184,0,0,1,0,14.368C4.649,50.636,0,43.452,0,43.452" transform="translate(0 17.103)" fill="#ff8900"/>
      <path id="Tracciato_384" data-name="Tracciato 384" d="M87.361,43.452s-4.649,7.184-8.616,7.184a7.184,7.184,0,0,1,0-14.368c3.967,0,8.616,7.184,8.616,7.184" transform="translate(33.745 17.103)" fill="#ff8900"/>
      <path id="Tracciato_385" data-name="Tracciato 385" d="M12.233,12.234S20.6,10.441,23.4,13.246a7.184,7.184,0,0,1-10.16,10.16c-2.8-2.8-1.012-11.172-1.012-11.172" transform="translate(5.502 5.503)" fill="#ff8900"/>
      <path id="Tracciato_386" data-name="Tracciato 386" d="M74.5,74.5s-8.367,1.794-11.172-1.012a7.184,7.184,0,0,1,10.16-10.16C76.293,66.133,74.5,74.5,74.5,74.5" transform="translate(28.871 28.871)" fill="#ff8900"/>
      <path id="Tracciato_387" data-name="Tracciato 387" d="M12.233,74.5s-1.792-8.367,1.012-11.172A7.184,7.184,0,0,1,23.4,73.488C20.6,76.294,12.233,74.5,12.233,74.5" transform="translate(5.502 28.871)" fill="#ff8900"/>
      <path id="Tracciato_388" data-name="Tracciato 388" d="M74.5,12.234s1.792,8.367-1.012,11.172a7.184,7.184,0,0,1-10.16-10.16c2.8-2.8,11.172-1.012,11.172-1.012" transform="translate(28.871 5.503)" fill="#ff8900"/>
      <path id="Tracciato_389" data-name="Tracciato 389" d="M26.566,3.133S34.982,4.68,36.5,8.344a7.183,7.183,0,1,1-13.272,5.5c-1.519-3.664,3.339-10.708,3.339-10.708" transform="translate(10.814 1.478)" fill="#8e67bf"/>
      <path id="Tracciato_390" data-name="Tracciato 390" d="M60.256,84.02s-8.416-1.547-9.933-5.211a7.183,7.183,0,1,1,13.272-5.5c1.519,3.666-3.339,10.708-3.339,10.708" transform="translate(23.471 32.478)" fill="#74af0d"/>
      <path id="Tracciato_391" data-name="Tracciato 391" d="M3.132,60.256s1.547-8.414,5.212-9.934A7.184,7.184,0,0,1,13.84,63.6c-3.664,1.519-10.708-3.34-10.708-3.34" transform="translate(1.477 23.471)" fill="#8e67bf"/>
      <path id="Tracciato_392" data-name="Tracciato 392" d="M84.019,26.566s-1.545,8.416-5.211,9.934a7.183,7.183,0,0,1-5.5-13.273c3.664-1.519,10.708,3.339,10.708,3.339" transform="translate(32.477 10.815)" fill="#e860b9"/>
      <path id="Tracciato_393" data-name="Tracciato 393" d="M3.132,26.566s7.044-4.858,10.708-3.339A7.183,7.183,0,0,1,8.344,36.5c-3.666-1.519-5.212-9.934-5.212-9.934" transform="translate(1.477 10.815)" fill="#00a6dd"/>
      <path id="Tracciato_394" data-name="Tracciato 394" d="M84.019,60.256s-7.044,4.859-10.708,3.34a7.184,7.184,0,0,1,5.5-13.275c3.666,1.52,5.211,9.934,5.211,9.934" transform="translate(32.477 23.471)" fill="#00a6dd"/>
      <path id="Tracciato_395" data-name="Tracciato 395" d="M26.566,84.02s-4.858-7.043-3.339-10.708a7.183,7.183,0,1,1,13.272,5.5c-1.517,3.664-9.933,5.211-9.933,5.211" transform="translate(10.814 32.478)" fill="#40b8a2"/>
      <path id="Tracciato_396" data-name="Tracciato 396" d="M60.256,3.133s4.858,7.044,3.339,10.708a7.183,7.183,0,1,1-13.272-5.5c1.517-3.664,9.933-5.211,9.933-5.211" transform="translate(23.471 1.478)" fill="#40b8a2"/>
      <path id="Tracciato_397" data-name="Tracciato 397" d="M41.606,29.3a5.9,5.9,0,0,0,5.031,3.078A5.894,5.894,0,0,0,41.762,23.4a5.9,5.9,0,0,0-.156,5.9" transform="translate(19.282 11.034)" fill="#00852a"/>
      <path id="Tracciato_398" data-name="Tracciato 398" d="M38.6,47.054a5.893,5.893,0,0,0,2.572,5.308,5.893,5.893,0,0,0,.743-10.185A5.894,5.894,0,0,0,38.6,47.054" transform="translate(18.192 19.889)" fill="#74af0d"/>
      <path id="Tracciato_399" data-name="Tracciato 399" d="M25.848,36.312a5.9,5.9,0,0,0-.4,5.885,5.893,5.893,0,0,0,5.7-8.476,5.894,5.894,0,0,0-5.3,2.591" transform="translate(11.716 15.895)" fill="#74af0d"/>
      <path id="Tracciato_400" data-name="Tracciato 400" d="M25.42,51.24a5.891,5.891,0,0,0,5.789,1.124,5.893,5.893,0,0,0-7.7-6.7A5.885,5.885,0,0,0,25.42,51.24" transform="translate(11.032 21.381)" fill="#00852a"/>
      <path id="Tracciato_401" data-name="Tracciato 401" d="M26.073,22.847a4.3,4.3,0,0,0,3.67,2.246,4.3,4.3,0,0,0-3.555-6.545,4.294,4.294,0,0,0-.115,4.3" transform="translate(12.049 8.746)" fill="#00852a"/>
      <path id="Tracciato_402" data-name="Tracciato 402" d="M52.7,23.111a4.3,4.3,0,0,0,.225,4.3,4.3,4.3,0,0,0,3.385-6.637,4.3,4.3,0,0,0-3.61,2.341" transform="translate(24.627 9.795)" fill="#74af0d"/>
      <path id="Tracciato_403" data-name="Tracciato 403" d="M34.716,27.711a4.3,4.3,0,0,0-3.492,2.513,4.3,4.3,0,0,0,7.414-.742,4.305,4.305,0,0,0-3.922-1.772" transform="translate(14.723 13.057)" fill="#74af0d"/>
      <path id="Tracciato_404" data-name="Tracciato 404" d="M18.836,35.829a4.3,4.3,0,0,0,4.3-.074,4.3,4.3,0,0,0-6.512-3.617,4.3,4.3,0,0,0,2.21,3.691" transform="translate(7.84 14.866)" fill="#00852a"/>
      <path id="Tracciato_405" data-name="Tracciato 405" d="M49.662,42.9a4.3,4.3,0,0,0,2.088-3.761,4.3,4.3,0,0,0-6.389,3.83,4.3,4.3,0,0,0,4.3-.069" transform="translate(21.39 18.202)" fill="#00852a"/>
      <path id="Tracciato_406" data-name="Tracciato 406" d="M61.8,34.924a4.3,4.3,0,0,0,1.046-4.173A4.3,4.3,0,0,0,57.654,36.1,4.306,4.306,0,0,0,61.8,34.924" transform="translate(27.11 14.44)" fill="#00852a"/>
      <path id="Tracciato_407" data-name="Tracciato 407" d="M39.177,65.53a4.3,4.3,0,0,0,4.3-.074,4.3,4.3,0,0,0-6.512-3.617,4.3,4.3,0,0,0,2.21,3.691" transform="translate(17.432 28.871)" fill="#00852a"/>
      <path id="Tracciato_408" data-name="Tracciato 408" d="M27.339,56.457a4.3,4.3,0,0,0-.444,4.278,4.3,4.3,0,0,0,4.373-6.029,4.3,4.3,0,0,0-3.929,1.751" transform="translate(12.506 25.786)" fill="#74af0d"/>
      <path id="Tracciato_409" data-name="Tracciato 409" d="M39.469,16.868a4.306,4.306,0,0,0,2.747,3.311,4.3,4.3,0,0,0-1.249-7.344,4.3,4.3,0,0,0-1.5,4.034" transform="translate(18.582 6.052)" fill="#00852a"/>
      <path id="Tracciato_410" data-name="Tracciato 410" d="M51.089,58.077A4.3,4.3,0,0,0,54.646,60.5a4.3,4.3,0,0,0-3.236-6.71,4.3,4.3,0,0,0-.321,4.29" transform="translate(23.889 25.364)" fill="#74af0d"/>
      <path id="Tracciato_411" data-name="Tracciato 411" d="M38.611,27.765s-6.331-1.163-7.473-3.92a5.4,5.4,0,0,1,9.984-4.137c1.142,2.756-2.512,8.057-2.512,8.057" transform="translate(14.488 7.72)" fill="#e65f77"/>
      <path id="Tracciato_412" data-name="Tracciato 412" d="M47.369,27.188s-4.2-4.875-3.362-7.74a5.4,5.4,0,0,1,10.371,3.04c-.84,2.864-7.009,4.7-7.009,4.7" transform="translate(20.699 7.339)" fill="#ff8900"/>
      <path id="Tracciato_413" data-name="Tracciato 413" d="M50.771,39.993s-4.2-4.875-3.362-7.739A5.4,5.4,0,1,1,57.78,35.293c-.84,2.864-7.009,4.7-7.009,4.7" transform="translate(22.303 13.377)" fill="#74af0d"/>
      <path id="Tracciato_414" data-name="Tracciato 414" d="M54.232,48.192s-2.357-5.989-.62-8.416A5.4,5.4,0,0,1,62.4,46.07c-1.738,2.425-8.167,2.122-8.167,2.122" transform="translate(24.979 17.692)" fill="#ff8900"/>
      <path id="Tracciato_415" data-name="Tracciato 415" d="M62.206,40.869s.2-6.432,2.753-7.976a5.4,5.4,0,1,1,5.589,9.249c-2.553,1.544-8.342-1.273-8.342-1.273" transform="translate(29.333 15.143)" fill="#8e67bf"/>
      <path id="Tracciato_416" data-name="Tracciato 416" d="M57.4,31.469s-1.931-6.141-.025-8.438a5.4,5.4,0,1,1,8.322,6.894c-1.9,2.3-8.3,1.544-8.3,1.544" transform="translate(26.657 9.938)" fill="#00a6dd"/>
      <path id="Tracciato_417" data-name="Tracciato 417" d="M28.611,33.091s-6.348,1.06-8.361-1.145a5.4,5.4,0,1,1,7.985-7.286c2.012,2.206.377,8.43.377,8.43" transform="translate(8.883 10.798)" fill="#74af0d"/>
      <path id="Tracciato_418" data-name="Tracciato 418" d="M38.605,49.467s-6.348,1.06-8.36-1.145a5.4,5.4,0,0,1,7.983-7.286c2.012,2.206.377,8.43.377,8.43" transform="translate(13.596 18.521)" fill="#40b8a2"/>
      <path id="Tracciato_419" data-name="Tracciato 419" d="M43.646,42.739s-6.309-1.282-7.4-4.06a5.4,5.4,0,1,1,10.061-3.948c1.09,2.778-2.662,8.008-2.662,8.008" transform="translate(16.915 14.759)" fill="#ff8900"/>
      <path id="Tracciato_420" data-name="Tracciato 420" d="M48.733,56.1s-4.9-4.176-4.507-7.136A5.4,5.4,0,0,1,54.94,50.386c-.391,2.959-6.207,5.717-6.207,5.717" transform="translate(20.844 20.877)" fill="#e860b9"/>
      <path id="Tracciato_421" data-name="Tracciato 421" d="M41.061,61.816s-6.437.077-8.088-2.41a5.4,5.4,0,1,1,9-5.977c1.651,2.485-.917,8.388-.917,8.388" transform="translate(15.123 24.055)" fill="#ff8900"/>
      <path id="Tracciato_422" data-name="Tracciato 422" d="M46.252,67.271s-4.9-4.175-4.507-7.134a5.4,5.4,0,1,1,10.716,1.419c-.391,2.956-6.208,5.715-6.208,5.715" transform="translate(19.674 26.143)" fill="#00a6dd"/>
      <path id="Tracciato_423" data-name="Tracciato 423" d="M56.525,60.269s-1.719-6.2.262-8.435a5.4,5.4,0,1,1,8.082,7.175c-1.981,2.231-8.344,1.26-8.344,1.26" transform="translate(26.328 23.586)" fill="#ff8900"/>
      <path id="Tracciato_424" data-name="Tracciato 424" d="M62.9,52.334s-1.719-6.2.262-8.433a5.4,5.4,0,1,1,8.082,7.174c-1.981,2.232-8.344,1.26-8.344,1.26" transform="translate(29.333 19.844)" fill="#40b8a2"/>
      <path id="Tracciato_425" data-name="Tracciato 425" d="M24.3,46.574s-5.942,2.477-8.4.787a5.4,5.4,0,0,1,6.117-8.912c2.46,1.691,2.285,8.124,2.285,8.124" transform="translate(6.389 17.684)" fill="#8e67bf"/>
      <path id="Tracciato_426" data-name="Tracciato 426" d="M28.185,56.738s-5.3,3.652-8.057,2.51a5.4,5.4,0,0,1,4.138-9.984c2.756,1.142,3.919,7.474,3.919,7.474" transform="translate(7.918 23.036)" fill="#00a6dd"/>
    </g>
  </g>
</svg>
