<svg xmlns="http://www.w3.org/2000/svg" xmlns:xlink="http://www.w3.org/1999/xlink" width="82.299" height="99.213" viewBox="0 0 82.299 99.213">
  <defs>
    <clipPath id="clip-path">
      <rect id="Rettangolo_109" data-name="Rettangolo 109" width="82.299" height="99.213" transform="translate(0 0)" fill="none"/>
    </clipPath>
  </defs>
  <g id="Raggruppa_264" data-name="Raggruppa 264" transform="translate(0 0)">
    <g id="Raggruppa_264-2" data-name="Raggruppa 264" clip-path="url(#clip-path)">
      <path id="Tracciato_430" data-name="Tracciato 430" d="M21.462,60.316h-.03a.387.387,0,0,0-.095.76A22.987,22.987,0,0,1,38.311,80.732,22.414,22.414,0,0,1,40.4,72.388,20.887,20.887,0,0,0,21.462,60.316" fill="#00852a"/>
      <path id="Tracciato_431" data-name="Tracciato 431" d="M38.24,86.457a22.852,22.852,0,0,1-4.127,10.272,1.566,1.566,0,0,0,2.029,2.288,10.455,10.455,0,0,1,10.02,0,1.563,1.563,0,0,0,2.3-1.1c0-.013.007-.025.009-.038a1.572,1.572,0,0,0-.13-.9,1.7,1.7,0,0,0-.149-.253L47.1,95.071a22.968,22.968,0,0,1,13.866-34,.386.386,0,0,0-.091-.759h-.036c-.327,0-.653.01-.977.026-.1,0-.2.012-.3.017q-.342.021-.682.052l-.326.032c-.234.027-.466.056-.7.089l-.263.037c-.313.049-.623.1-.932.166-.058.012-.115.027-.172.039-.252.053-.5.111-.751.173l-.3.08c-.21.056-.418.116-.625.177-.1.03-.2.061-.3.093-.233.073-.463.152-.692.233-.065.024-.13.045-.195.069-.289.106-.574.219-.857.338-.077.032-.152.067-.228.1q-.313.136-.622.281l-.287.14q-.287.141-.567.29l-.265.142c-.24.132-.478.268-.713.41-.027.016-.055.031-.083.049-.259.157-.514.322-.766.49L48.995,64q-.264.182-.522.37l-.257.192q-.257.2-.508.4c-.072.058-.144.115-.215.174-.232.193-.461.389-.684.592l-.1.1q-.284.261-.557.531l-.217.219c-.145.148-.287.3-.428.449-.073.079-.145.158-.217.238-.15.168-.3.339-.443.511-.051.062-.1.121-.155.183q-.286.348-.558.71c-.047.062-.091.127-.138.189-.134.184-.267.37-.4.557l-.179.268c-.115.172-.226.347-.335.523-.055.089-.111.178-.165.267-.129.215-.254.434-.376.654-.027.049-.055.1-.081.144q-.216.4-.415.809c-.041.085-.08.172-.12.257-.092.195-.181.393-.267.591-.044.1-.086.2-.129.3-.081.2-.159.4-.234.6-.036.094-.072.187-.106.28A67.463,67.463,0,0,0,38.24,86.457" fill="#00852a"/>
      <path id="Tracciato_432" data-name="Tracciato 432" d="M41.149,0S46.03,3.159,46.03,5.855a4.881,4.881,0,1,1-9.762,0c0-2.7,4.881-5.855,4.881-5.855" fill="#ff8900"/>
      <path id="Tracciato_433" data-name="Tracciato 433" d="M0,41.15s3.159-4.882,5.855-4.882a4.882,4.882,0,0,1,0,9.764C3.159,46.032,0,41.15,0,41.15" fill="#ff8900"/>
      <path id="Tracciato_434" data-name="Tracciato 434" d="M82.3,41.15s-3.159,4.882-5.855,4.882a4.882,4.882,0,0,1,0-9.764c2.7,0,5.855,4.882,5.855,4.882" fill="#ff8900"/>
      <path id="Tracciato_435" data-name="Tracciato 435" d="M12.052,12.053s5.686-1.218,7.592.688a4.882,4.882,0,1,1-6.9,6.9c-1.906-1.906-.688-7.592-.688-7.592" fill="#ff8900"/>
      <path id="Tracciato_436" data-name="Tracciato 436" d="M70.247,70.246s-5.686,1.219-7.592-.688a4.882,4.882,0,1,1,6.9-6.9c1.906,1.906.688,7.592.688,7.592" fill="#ff8900"/>
      <path id="Tracciato_437" data-name="Tracciato 437" d="M12.052,70.246s-1.218-5.686.688-7.592a4.882,4.882,0,0,1,6.9,6.9c-1.906,1.907-7.592.688-7.592.688" fill="#ff8900"/>
      <path id="Tracciato_438" data-name="Tracciato 438" d="M70.247,12.053s1.218,5.686-.688,7.592a4.882,4.882,0,1,1-6.9-6.9c1.906-1.906,7.592-.688,7.592-.688" fill="#ff8900"/>
      <path id="Tracciato_439" data-name="Tracciato 439" d="M25.4,3.133s5.719,1.051,6.75,3.541a4.881,4.881,0,1,1-9.019,3.736C22.1,7.92,25.4,3.133,25.4,3.133" fill="#8e67bf"/>
      <path id="Tracciato_440" data-name="Tracciato 440" d="M56.9,79.167s-5.719-1.051-6.75-3.541a4.881,4.881,0,1,1,9.019-3.736C60.2,74.381,56.9,79.167,56.9,79.167" fill="#74af0d"/>
      <path id="Tracciato_441" data-name="Tracciato 441" d="M3.132,56.9s1.051-5.718,3.542-6.751a4.882,4.882,0,0,1,3.735,9.021C7.919,60.2,3.132,56.9,3.132,56.9" fill="#8e67bf"/>
      <path id="Tracciato_442" data-name="Tracciato 442" d="M79.166,25.4s-1.05,5.719-3.541,6.751a4.882,4.882,0,0,1-3.736-9.02c2.49-1.032,7.277,2.269,7.277,2.269" fill="#e860b9"/>
      <path id="Tracciato_443" data-name="Tracciato 443" d="M3.132,25.4s4.787-3.3,7.277-2.269a4.881,4.881,0,0,1-3.735,9.02C4.183,31.121,3.132,25.4,3.132,25.4" fill="#00a6dd"/>
      <path id="Tracciato_444" data-name="Tracciato 444" d="M79.166,56.9s-4.787,3.3-7.277,2.27a4.882,4.882,0,0,1,3.736-9.021c2.491,1.033,3.541,6.751,3.541,6.751" fill="#00a6dd"/>
      <path id="Tracciato_445" data-name="Tracciato 445" d="M25.4,79.167s-3.3-4.786-2.269-7.277a4.881,4.881,0,1,1,9.019,3.736c-1.031,2.49-6.75,3.541-6.75,3.541" fill="#40b8a2"/>
      <path id="Tracciato_446" data-name="Tracciato 446" d="M56.9,3.133s3.3,4.787,2.269,7.277a4.881,4.881,0,1,1-9.019-3.736c1.031-2.49,6.75-3.541,6.75-3.541" fill="#40b8a2"/>
      <path id="Tracciato_447" data-name="Tracciato 447" d="M41.377,27.406A4.006,4.006,0,0,0,44.8,29.5a4.005,4.005,0,0,0-3.313-6.1,4.006,4.006,0,0,0-.106,4.007" fill="#00852a"/>
      <path id="Tracciato_448" data-name="Tracciato 448" d="M38.591,45.491A4,4,0,0,0,40.339,49.1a4,4,0,0,0,.505-6.921,4.005,4.005,0,0,0-2.253,3.314" fill="#74af0d"/>
      <path id="Tracciato_449" data-name="Tracciato 449" d="M25.527,35.477a4.006,4.006,0,0,0-.271,4,4,4,0,0,0,3.871-5.76,4.006,4.006,0,0,0-3.6,1.761" fill="#74af0d"/>
      <path id="Tracciato_450" data-name="Tracciato 450" d="M24.771,49.35a4,4,0,0,0,3.934.764,4,4,0,0,0-5.236-4.554,4,4,0,0,0,1.3,3.79" fill="#00852a"/>
      <path id="Tracciato_451" data-name="Tracciato 451" d="M25.906,21.469A2.923,2.923,0,0,0,28.4,23a2.921,2.921,0,0,0-2.416-4.448,2.918,2.918,0,0,0-.078,2.922" fill="#00852a"/>
      <path id="Tracciato_452" data-name="Tracciato 452" d="M52.546,22.361A2.922,2.922,0,0,0,52.7,25.28,2.921,2.921,0,0,0,55,20.77a2.922,2.922,0,0,0-2.453,1.591" fill="#74af0d"/>
      <path id="Tracciato_453" data-name="Tracciato 453" d="M33.6,27.7a2.923,2.923,0,0,0-2.373,1.708,2.923,2.923,0,0,0,5.038-.5A2.926,2.926,0,0,0,33.6,27.7" fill="#74af0d"/>
      <path id="Tracciato_454" data-name="Tracciato 454" d="M18.128,34.45a2.921,2.921,0,0,0,2.923-.05,2.921,2.921,0,0,0-4.425-2.458,2.922,2.922,0,0,0,1.5,2.508" fill="#00852a"/>
      <path id="Tracciato_455" data-name="Tracciato 455" d="M48.284,41.525A2.922,2.922,0,0,0,49.7,38.969a2.922,2.922,0,0,0-4.342,2.6,2.921,2.921,0,0,0,2.923-.047" fill="#00852a"/>
      <path id="Tracciato_456" data-name="Tracciato 456" d="M60.416,33.545a2.921,2.921,0,0,0,.711-2.836A2.922,2.922,0,0,0,57.6,34.343a2.926,2.926,0,0,0,2.814-.8" fill="#00852a"/>
      <path id="Tracciato_457" data-name="Tracciato 457" d="M38.469,64.151a2.923,2.923,0,0,0,2.923-.05,2.921,2.921,0,0,0-4.425-2.458,2.922,2.922,0,0,0,1.5,2.508" fill="#00852a"/>
      <path id="Tracciato_458" data-name="Tracciato 458" d="M27.077,55.889a2.92,2.92,0,0,0-.3,2.907,2.92,2.92,0,0,0,2.972-4.1,2.92,2.92,0,0,0-2.67,1.19" fill="#74af0d"/>
      <path id="Tracciato_459" data-name="Tracciato 459" d="M39.449,15.575a2.926,2.926,0,0,0,1.867,2.25,2.921,2.921,0,0,0-.849-4.991,2.925,2.925,0,0,0-1.018,2.741" fill="#00852a"/>
      <path id="Tracciato_460" data-name="Tracciato 460" d="M50.952,56.7a2.921,2.921,0,0,0,2.417,1.645,2.921,2.921,0,0,0-2.2-4.56,2.922,2.922,0,0,0-.218,2.915" fill="#74af0d"/>
      <path id="Tracciato_461" data-name="Tracciato 461" d="M36.084,24.114s-4.3-.79-5.078-2.664a3.672,3.672,0,0,1,6.785-2.811c.776,1.873-1.707,5.475-1.707,5.475" fill="#e65f77"/>
      <path id="Tracciato_462" data-name="Tracciato 462" d="M46.256,23.463S43.4,20.15,43.971,18.2a3.672,3.672,0,0,1,7.048,2.066c-.571,1.946-4.763,3.194-4.763,3.194" fill="#ff8900"/>
      <path id="Tracciato_463" data-name="Tracciato 463" d="M49.658,36.268s-2.855-3.313-2.285-5.259a3.672,3.672,0,1,1,7.048,2.065c-.571,1.946-4.763,3.194-4.763,3.194" fill="#74af0d"/>
      <path id="Tracciato_464" data-name="Tracciato 464" d="M53.829,44.772s-1.6-4.07-.421-5.719a3.672,3.672,0,1,1,5.971,4.277c-1.181,1.648-5.55,1.442-5.55,1.442" fill="#ff8900"/>
      <path id="Tracciato_465" data-name="Tracciato 465" d="M62.206,38.063s.135-4.371,1.871-5.42a3.672,3.672,0,1,1,3.8,6.285c-1.735,1.049-5.669-.865-5.669-.865" fill="#8e67bf"/>
      <path id="Tracciato_466" data-name="Tracciato 466" d="M57.119,28.138S55.807,23.965,57.1,22.4a3.672,3.672,0,0,1,5.655,4.685c-1.294,1.563-5.638,1.049-5.638,1.049" fill="#00a6dd"/>
      <path id="Tracciato_467" data-name="Tracciato 467" d="M25.48,29.825s-4.314.72-5.682-.778A3.673,3.673,0,1,1,25.224,24.1c1.367,1.5.256,5.729.256,5.729" fill="#74af0d"/>
      <path id="Tracciato_468" data-name="Tracciato 468" d="M35.474,46.2s-4.314.72-5.681-.778a3.672,3.672,0,0,1,5.425-4.951c1.367,1.5.256,5.729.256,5.729" fill="#40b8a2"/>
      <path id="Tracciato_469" data-name="Tracciato 469" d="M41.155,39.073s-4.287-.871-5.028-2.759a3.672,3.672,0,1,1,6.837-2.683c.741,1.888-1.809,5.442-1.809,5.442" fill="#ff8900"/>
      <path id="Tracciato_470" data-name="Tracciato 470" d="M47.282,52.312s-3.329-2.838-3.063-4.849a3.672,3.672,0,0,1,7.281.964c-.266,2.011-4.218,3.885-4.218,3.885" fill="#e860b9"/>
      <path id="Tracciato_471" data-name="Tracciato 471" d="M38.18,58.354s-4.374.052-5.5-1.638A3.672,3.672,0,1,1,38.8,52.654c1.122,1.689-.623,5.7-.623,5.7" fill="#ff8900"/>
      <path id="Tracciato_472" data-name="Tracciato 472" d="M44.8,63.48s-3.329-2.837-3.063-4.848a3.673,3.673,0,1,1,7.282.964C48.754,61.6,44.8,63.48,44.8,63.48" fill="#00a6dd"/>
      <path id="Tracciato_473" data-name="Tracciato 473" d="M56.3,56.984s-1.168-4.215.178-5.732a3.672,3.672,0,0,1,5.492,4.876c-1.346,1.516-5.67.856-5.67.856" fill="#ff8900"/>
      <path id="Tracciato_474" data-name="Tracciato 474" d="M62.676,49.049s-1.168-4.215.178-5.731a3.672,3.672,0,1,1,5.492,4.875c-1.346,1.517-5.67.856-5.67.856" fill="#40b8a2"/>
      <path id="Tracciato_475" data-name="Tracciato 475" d="M20.854,43.667s-4.038,1.683-5.71.535A3.673,3.673,0,0,1,19.3,38.146c1.672,1.149,1.553,5.521,1.553,5.521" fill="#8e67bf"/>
      <path id="Tracciato_476" data-name="Tracciato 476" d="M24.534,54.211s-3.6,2.482-5.475,1.706a3.672,3.672,0,0,1,2.812-6.785c1.873.776,2.663,5.079,2.663,5.079" fill="#00a6dd"/>
    </g>
  </g>
</svg>
